<?xml version="1.0" encoding="UTF-8" standalone="no"?>
<!-- Created with Inkscape (http://www.inkscape.org/) -->

<svg
   xmlns:dc="http://purl.org/dc/elements/1.1/"
   xmlns:cc="http://creativecommons.org/ns#"
   xmlns:rdf="http://www.w3.org/1999/02/22-rdf-syntax-ns#"
   xmlns:svg="http://www.w3.org/2000/svg"
   xmlns="http://www.w3.org/2000/svg"
   xmlns:sodipodi="http://sodipodi.sourceforge.net/DTD/sodipodi-0.dtd"
   xmlns:inkscape="http://www.inkscape.org/namespaces/inkscape"
   id="svg16289"
   version="1.1"
   inkscape:version="0.91 r13725"
   xml:space="preserve"
   width="361.26898"
   height="225.14641"
   viewBox="0 0 361.26898 225.14641"
   sodipodi:docname="logo.svg"><metadata
     id="metadata16295"><rdf:RDF><cc:Work
         rdf:about=""><dc:format>image/svg+xml</dc:format><dc:type
           rdf:resource="http://purl.org/dc/dcmitype/StillImage" /><dc:title></dc:title></cc:Work></rdf:RDF></metadata><defs
     id="defs16293"><linearGradient
       x1="0"
       y1="0"
       x2="1"
       y2="0"
       gradientUnits="userSpaceOnUse"
       gradientTransform="matrix(0,316.26819,316.26819,0,223.87254,74.37381)"
       spreadMethod="pad"
       id="linearGradient16319"><stop
         style="stop-opacity:1;stop-color:#36bdb7"
         offset="0"
         id="stop16321" /><stop
         style="stop-opacity:1;stop-color:#36bdb7"
         offset="0.01041048"
         id="stop16323" /><stop
         style="stop-opacity:1;stop-color:#36d7b7"
         offset="1"
         id="stop16325" /></linearGradient><clipPath
       clipPathUnits="userSpaceOnUse"
       id="clipPath16333"><path
         d="m 0,421.168 692,0 L 692,0 0,0 0,421.168 Z"
         id="path16335"
         inkscape:connector-curvature="0" /></clipPath><clipPath
       clipPathUnits="userSpaceOnUse"
       id="clipPath16341"><path
         d="m 140.086,125.001 107.826,0 0,-50.6142 -107.826,0 0,50.6142 z"
         id="path16343"
         inkscape:connector-curvature="0" /></clipPath><clipPath
       clipPathUnits="userSpaceOnUse"
       id="clipPath16345"><path
         d="m 140.086,125.001 107.826,0 0,-50.6153 -107.826,0 0,50.6153 z"
         id="path16347"
         inkscape:connector-curvature="0" /></clipPath><linearGradient
       x1="0"
       y1="0"
       x2="1"
       y2="0"
       gradientUnits="userSpaceOnUse"
       gradientTransform="matrix(0,-135.3,-135.3,0,193.99902,225.41602)"
       spreadMethod="pad"
       id="linearGradient16353"><stop
         style="stop-opacity:1;stop-color:#ffffff"
         offset="0"
         id="stop16355" /><stop
         style="stop-opacity:1;stop-color:#000000"
         offset="1"
         id="stop16357" /></linearGradient><mask
       maskUnits="userSpaceOnUse"
       x="0"
       y="0"
       width="1"
       height="1"
       id="mask16359"><g
         id="g16361"><g
           clip-path="url(#clipPath16341)"
           id="g16363"><path
             d="m 140.086,125.001 107.826,0 0,-50.615 -107.826,0 0,50.615 z"
             style="fill:#000000;fill-opacity:1;fill-rule:nonzero;stroke:none"
             id="path16365"
             inkscape:connector-curvature="0" /><g
             id="g16367"><g
               id="g16369" /><g
               id="g16371"><g
                 clip-path="url(#clipPath16345)"
                 id="g16373"><g
                   id="g16375"><g
                     id="g16377"><g
                       id="g16379"><g
                         id="g16381"><path
                           d="m 140.086,74.386 107.826,0 0,50.615 -107.826,0 0,-50.615 z"
                           style="fill:url(#linearGradient16353);stroke:none"
                           id="path16383"
                           inkscape:connector-curvature="0" /></g></g></g></g></g></g></g></g></g></mask><clipPath
       clipPathUnits="userSpaceOnUse"
       id="clipPath16389"><path
         d="m 140.086,125.001 107.826,0 0,-50.6142 -107.826,0 0,50.6142 z"
         id="path16391"
         inkscape:connector-curvature="0" /></clipPath></defs><sodipodi:namedview
     pagecolor="#ffffff"
     bordercolor="#666666"
     borderopacity="1"
     objecttolerance="10"
     gridtolerance="10"
     guidetolerance="10"
     inkscape:pageopacity="0"
     inkscape:pageshadow="2"
     inkscape:window-width="1920"
     inkscape:window-height="1017"
     id="namedview16291"
     showgrid="false"
     fit-margin-top="0"
     fit-margin-left="0"
     fit-margin-right="0"
     fit-margin-bottom="0"
     inkscape:zoom="1.5225434"
     inkscape:cx="203.52167"
     inkscape:cy="112.64709"
     inkscape:window-x="-4"
     inkscape:window-y="-4"
     inkscape:window-maximized="1"
     inkscape:current-layer="g16297" /><g
     id="g16297"
     inkscape:groupmode="layer"
     inkscape:label="LOGO"
     transform="matrix(1.25,0,0,-1.25,-245.39823,375.7293)"><text
       transform="scale(0.99999754,-1.0000025)"
       style="font-variant:normal;font-weight:normal;font-stretch:normal;font-size:40.71195221px;font-family:BPreplay;-inkscape-font-specification:BPreplay;writing-mode:lr-tb;fill:#6c7a89;fill-opacity:1;fill-rule:nonzero;stroke:none"
       id="text16299"
       x="303.00562"
       y="-129.66692"><tspan
         x="303.00562 327.59564 349.05084 372.86734 381.21329 390.57703 411.09586"
         y="-129.66692"
         sodipodi:role="line"
         id="tspan16301">english</tspan></text>
<text
       transform="scale(1.0000026,-0.9999974)"
       style="font-variant:normal;font-weight:bold;font-stretch:normal;font-size:38.42494965px;font-family:BPreplay;-inkscape-font-specification:BPreplay-Bold;writing-mode:lr-tb;fill:#6c7a89;fill-opacity:1;fill-rule:nonzero;stroke:none"
       id="text16303"
       x="431.69125"
       y="-129.66757"><tspan
         x="431.69125 461.58588"
         y="-129.66757"
         sodipodi:role="line"
         id="tspan16305">ON</tspan></text>
<g
       id="g16307"
       transform="matrix(0.5,0,0,0.5,170.41308,105.26244)"><g
         id="g16309"><g
           id="g16315"><g
             id="g16317"><path
               d="M 232.654,390.597 C 132.406,388.728 51.811,318.668 51.811,232.508 l 0,0 c 0,-87.251 82.649,-157.995 184.66,-158.131 l 0,0 c 0.096,-0.002 0.195,-0.003 0.292,-0.003 l 0,0 c 6.16,0 11.153,4.269 11.153,9.536 l 0,0 c 0,5.265 -4.993,9.534 -11.153,9.534 l 0,0 c -21.047,0 -38.579,12.868 -42.422,29.903 l 0,0 c 13.506,-3.185 27.732,-4.886 42.422,-4.886 l 0,0 c 14.69,0 28.916,1.701 42.421,4.886 l 0,0 c 67.314,15.875 116.749,68.604 116.749,131.204 l 0,0 c 0,75.161 -71.262,136.091 -159.17,136.091 l 0,0 c -1.373,0 -2.742,-0.019 -4.109,-0.045 M 191.307,254.551 c 0,25.579 24.253,46.316 54.171,46.316 l 0,0 c 29.917,0 54.171,-20.737 54.171,-46.316 l 0,0 c 0,-25.579 -24.254,-46.316 -54.171,-46.316 l 0,0 c -29.918,0 -54.171,20.737 -54.171,46.316"
               style="fill:url(#linearGradient16319);stroke:none"
               id="path16327"
               inkscape:connector-curvature="0" /></g></g></g></g><g
       id="g16329"
       transform="matrix(0.5,0,0,0.5,170.41308,105.26244)"><g
         id="g16331"
         clip-path="url(#clipPath16333)"><g
           id="g16337"><g
             id="g16339" /><g
             id="g16385"
             mask="url(#mask16359)"><g
               id="g16387" /><g
               id="g16393"><g
                 clip-path="url(#clipPath16389)"
                 id="g16395"><g
                   transform="translate(181.6013,125.0014)"
                   id="g16397"><path
                     d="m 0,0 c 4.435,0 8.713,-0.575 12.737,-1.642 l 0.003,-0.012 c 3.848,-17.03 21.377,-29.89 42.419,-29.89 6.159,0 11.152,-4.27 11.152,-9.535 0,-5.266 -4.993,-9.536 -11.152,-9.536 -0.098,0 -0.196,0.001 -0.293,0.003 -34.987,0.047 -67.696,8.401 -95.575,22.877 l -0.634,0.334 -0.172,0.092 C -36.658,-11.59 -19.913,0 0,0"
                     style="fill:#000000;fill-opacity:1;fill-rule:evenodd;stroke:none"
                     id="path16399"
                     inkscape:connector-curvature="0" /></g></g></g></g></g></g></g></g></svg>