<?xml version="1.0" encoding="UTF-8" standalone="no"?>
<!-- Created with Inkscape (http://www.inkscape.org/) -->

<svg
   xmlns:dc="http://purl.org/dc/elements/1.1/"
   xmlns:cc="http://creativecommons.org/ns#"
   xmlns:rdf="http://www.w3.org/1999/02/22-rdf-syntax-ns#"
   xmlns:svg="http://www.w3.org/2000/svg"
   xmlns="http://www.w3.org/2000/svg"
   xmlns:sodipodi="http://sodipodi.sourceforge.net/DTD/sodipodi-0.dtd"
   xmlns:inkscape="http://www.inkscape.org/namespaces/inkscape"
   id="svg16289"
   version="1.1"
   inkscape:version="0.91 r13725"
   xml:space="preserve"
   width="361.26898"
   height="225.14641"
   viewBox="0 0 361.26898 225.14641"
   sodipodi:docname="logo.svg"><metadata
     id="metadata16295"><rdf:RDF><cc:Work
         rdf:about=""><dc:format>image/svg+xml</dc:format><dc:type
           rdf:resource="http://purl.org/dc/dcmitype/StillImage" /><dc:title></dc:title></cc:Work></rdf:RDF></metadata><defs
     id="defs16293"><linearGradient
       x1="0"
       y1="0"
       x2="1"
       y2="0"
       gradientUnits="userSpaceOnUse"
       gradientTransform="matrix(0,316.26819,316.26819,0,223.87254,74.37381)"
       spreadMethod="pad"
       id="linearGradient16319"><stop
         style="stop-opacity:1;stop-color:#36bdb7"
         offset="0"
         id="stop16321" /><stop
         style="stop-opacity:1;stop-color:#36bdb7"
         offset="0.01041048"
         id="stop16323" /><stop
         style="stop-opacity:1;stop-color:#36d7b7"
         offset="1"
         id="stop16325" /></linearGradient><clipPath
       clipPathUnits="userSpaceOnUse"
       id="clipPath16333"><path
         d="m 0,421.168 692,0 L 692,0 0,0 0,421.168 Z"
         id="path16335"
         inkscape:connector-curvature="0" /></clipPath><clipPath
       clipPathUnits="userSpaceOnUse"
       id="clipPath16341"><path
         d="m 140.086,125.001 107.826,0 0,-50.6142 -107.826,0 0,50.6142 z"
         id="path16343"
         inkscape:connector-curvature="0" /></clipPath><clipPath
       clipPathUnits="userSpaceOnUse"
       id="clipPath16345"><path
         d="m 140.086,125.001 107.826,0 0,-50.6153 -107.826,0 0,50.6153 z"
         id="path16347"
         inkscape:connector-curvature="0" /></clipPath><linearGradient
       x1="0"
       y1="0"
       x2="1"
       y2="0"
       gradientUnits="userSpaceOnUse"
       gradientTransform="matrix(0,-135.3,-135.3,0,193.99902,225.41602)"
       spreadMethod="pad"
       id="linearGradient16353"><stop
         style="stop-opacity:1;stop-color:#ffffff"
         offset="0"
         id="stop16355" /><stop
         style="stop-opacity:1;stop-color:#000000"
         offset="1"
         id="stop16357" /></linearGradient><mask
       maskUnits="userSpaceOnUse"
       x="0"
       y="0"
       width="1"
       height="1"
       id="mask16359"><g
         id="g16361"><g
           clip-path="url(#clipPath16341)"
           id="g16363"><path
             d="m 140.086,125.001 107.826,0 0,-50.615 -107.826,0 0,50.615 z"
             style="fill:#000000;fill-opacity:1;fill-rule:nonzero;stroke:none"
             id="path16365"
             inkscape:connector-curvature="0" /><g
             id="g16367"><g
               id="g16369" /><g
               id="g16371"><g
                 clip-path="url(#clipPath16345)"
                 id="g16373"><g
                   id="g16375"><g
                     id="g16377"><g
                       id="g16379"><g
                         id="g16381"><path
                           d="m 140.086,74.386 107.826,0 0,50.615 -107.826,0 0,-50.615 z"
                           style="fill:url(#linearGradient16353);stroke:none"
                           id="path16383"
                           inkscape:connector-curvature="0" /></g></g></g></g></g></g></g></g></g></mask><clipPath
       clipPathUnits="userSpaceOnUse"
       id="clipPath16389"><path
         d="m 140.086,125.001 107.826,0 0,-50.6142 -107.826,0 0,50.6142 z"
         id="path16391"
         inkscape:connector-curvature="0" /></clipPath></defs><sodipodi:namedview
     pagecolor="#ffffff"
     bordercolor="#666666"
     borderopacity="1"
     objecttolerance="10"
     gridtolerance="10"
     guidetolerance="10"
     inkscape:pageopacity="0"
     inkscape:pageshadow="2"
     inkscape:window-width="1920"
     inkscape:window-height="1017"
     id="namedview16291"
     showgrid="false"
     fit-margin-top="0"
     fit-margin-left="0"
     fit-margin-right="0"
     fit-margin-bottom="0"
     inkscape:zoom="1.5225434"
     inkscape:cx="203.52167"
     inkscape:cy="112.64709"
     inkscape:window-x="-4"
     inkscape:window-y="-4"
     inkscape:window-maximized="1"
     inkscape:current-layer="g16297" /><g
     id="g16297"
     inkscape:groupmode="layer"
     inkscape:label="LOGO"
     transform="matrix(1.25,0,0,-1.25,-245.39823,375.7293)"><g
       transform="scale(0.99999754,-1.0000025)"
       style="font-variant:normal;font-weight:normal;font-stretch:normal;font-size:40.71195221px;font-family:BPreplay;-inkscape-font-specification:BPreplay;writing-mode:lr-tb;fill:#6c7a89;fill-opacity:1;fill-rule:nonzero;stroke:none"
       id="text16299"><path
         d="m 312.85791,-153.03558 c -6.35107,0 -9.85229,5.98466 -9.85229,11.96932 0,6.43249 3.78621,11.88789 10.50368,11.88789 3.62336,0 6.43249,-1.22136 8.34595,-3.62337 0.20356,-0.20356 0.28498,-0.48854 0.28498,-0.81424 0,-0.93637 -0.56996,-1.3842 -1.34349,-1.3842 -0.56997,0 -1.22136,0.24427 -1.75062,0.73281 -1.83203,1.62848 -3.25695,2.07631 -5.53682,2.07631 -3.62336,0 -7.28744,-3.70478 -7.28744,-7.36886 l 13.76064,0 c 1.91346,0 2.27987,-1.09922 2.27987,-3.29767 0,-5.94394 -3.37909,-10.17799 -9.40446,-10.17799 z m -6.59534,10.5444 c 0,-4.0712 2.80913,-7.53171 6.71747,-7.53171 3.86764,0 6.26964,3.37909 6.26964,7.53171 l -12.98711,0 z"
         style=""
         id="path17006" /><path
         d="m 327.59564,-131.13255 c 0,0.97709 0.48855,1.46563 1.46563,1.46563 1.0178,0 1.50634,-0.48854 1.50634,-1.46563 l 0,-12.78355 c 0,-4.03048 2.80913,-6.10679 5.61825,-6.10679 2.7277,0 5.45541,1.99488 5.45541,6.10679 l 0,12.78355 c 0,0.97709 0.48854,1.46563 1.46563,1.46563 1.01779,0 1.50634,-0.48854 1.50634,-1.46563 l 0,-14.08633 c 0,-4.84472 -4.03049,-7.77598 -7.93883,-7.77598 -2.40201,0 -4.7633,1.09922 -6.1068,3.54194 l 0,-1.54706 c 0,-1.05851 -0.48854,-1.58776 -1.50634,-1.58776 -0.97708,0 -1.46563,0.52925 -1.46563,1.58776 l 0,19.86743 z"
         style=""
         id="path17008" /><path
         d="m 352.18566,-141.1884 c 0,-5.86252 3.33838,-8.83449 6.59534,-8.83449 3.33838,0 6.63605,3.05339 6.63605,8.95663 0,6.02537 -3.21625,9.03805 -6.51392,9.03805 -3.29766,0 -6.71747,-3.09411 -6.71747,-9.16019 z m 13.10925,-7.97954 c -0.85495,-2.11702 -3.82692,-3.82692 -6.31035,-3.82692 -6.4732,0 -9.93372,5.78109 -9.93372,11.84717 0,6.1068 3.41981,11.92861 9.93372,11.92861 2.44272,0 5.25184,-1.05852 6.31035,-3.70479 l 0,2.07631 c 0,5.04828 -3.21624,7.32815 -6.88032,7.32815 -1.58776,0 -3.29767,-0.40712 -4.84472,-1.26207 -0.48854,-0.28499 -0.93638,-0.61068 -1.54706,-0.61068 -0.93637,0 -1.46563,0.77353 -1.46563,1.58777 0,0.56996 0.24428,1.13993 0.81424,1.50634 2.19845,1.3842 4.88544,1.83204 7.16531,1.83204 4.96686,0 9.77087,-3.58266 9.77087,-10.74796 l 0,-20.47811 c 0,-0.93638 -0.52926,-1.42492 -1.54706,-1.42492 -0.97709,0 -1.46563,0.44783 -1.46563,1.34349 l 0,2.60557 z"
         style=""
         id="path17010" /><path
         d="m 372.86734,-131.17326 c 0,1.0178 0.48854,1.50634 1.50634,1.50634 1.0178,0 1.50634,-0.48854 1.50634,-1.50634 l 0,-28.78335 c 0,-1.0178 -0.52925,-1.54705 -1.54705,-1.54705 -0.97709,0 -1.46563,0.52925 -1.46563,1.54705 l 0,28.78335 z"
         style=""
         id="path17012" /><path
         d="m 381.82397,-131.17326 c 0,1.0178 0.52925,1.50634 1.54705,1.50634 1.0178,0 1.54706,-0.48854 1.54706,-1.50634 l 0,-20.1117 c 0,-1.0178 -0.56997,-1.50634 -1.58777,-1.50634 -0.97709,0 -1.50634,0.48854 -1.50634,1.50634 l 0,20.1117 z m -0.61068,-28.41694 c 0,1.13993 0.89566,2.0356 2.03559,2.0356 1.13994,0 2.0356,-0.89567 2.0356,-2.0356 0,-1.13994 -0.89566,-2.0356 -2.0356,-2.0356 -1.13993,0 -2.03559,0.89566 -2.03559,2.0356 z"
         style=""
         id="path17014" /><path
         d="m 393.42686,-134.06381 c -0.40712,-0.28498 -0.81424,-0.44783 -1.18064,-0.44783 -0.77353,0 -1.3435,0.52926 -1.3435,1.66919 0,0.48855 0.16285,0.97709 0.52926,1.22136 2.23915,1.42492 4.60045,2.40201 7.53171,2.40201 4.03048,0 8.42737,-1.83204 8.42737,-6.83961 0,-3.66408 -3.4198,-5.089 -6.75818,-6.4732 -3.0534,-1.26207 -6.22893,-2.23916 -6.22893,-4.11191 0,-2.40201 2.48343,-3.25696 4.88543,-3.25696 1.91347,0 3.90835,0.48855 4.88544,1.05851 0.28498,0.16285 0.61068,0.24428 0.89566,0.24428 0.77353,0 1.38421,-0.48855 1.38421,-1.42492 0,-0.56997 -0.24427,-1.13994 -0.77353,-1.42492 -1.95417,-1.05851 -4.19333,-1.46563 -6.31035,-1.46563 -4.31547,0 -8.1831,2.0356 -8.1831,6.63605 0,3.46051 4.47831,5.25184 8.1831,6.59533 2.15773,0.77353 4.68187,1.91347 4.68187,3.90835 0,2.64628 -2.80912,3.54194 -5.00757,3.54194 -2.27987,0 -4.19333,-0.89566 -5.61825,-1.83204 z"
         style=""
         id="path17016" /><path
         d="m 411.09586,-131.13255 c 0,0.97709 0.48854,1.46563 1.46563,1.46563 1.01779,0 1.50634,-0.48854 1.50634,-1.46563 l 0,-12.78355 c 0,-4.03048 2.80912,-6.10679 5.61825,-6.10679 2.7277,0 5.4554,1.99488 5.4554,6.10679 l 0,12.78355 c 0,0.97709 0.48854,1.46563 1.46563,1.46563 1.0178,0 1.50634,-0.48854 1.50634,-1.46563 l 0,-14.08633 c 0,-4.64116 -4.11191,-7.73527 -8.06096,-7.73527 -2.32059,0 -4.60046,1.05851 -5.98466,3.50123 l 0,-10.42226 c 0,-1.05852 -0.48855,-1.58777 -1.50634,-1.58777 -0.97709,0 -1.46563,0.52925 -1.46563,1.58777 l 0,28.74263 z"
         style=""
         id="path17018" /></g><g
       transform="scale(1.0000026,-0.9999974)"
       style="font-variant:normal;font-weight:bold;font-stretch:normal;font-size:38.42494965px;font-family:BPreplay;-inkscape-font-specification:BPreplay-Bold;writing-mode:lr-tb;fill:#6c7a89;fill-opacity:1;fill-rule:nonzero;stroke:none"
       id="text16303"><path
         d="m 445.48581,-160.40753 c -8.72246,0 -13.06448,7.76184 -13.06448,15.48525 0,7.80027 4.38044,15.60053 13.06448,15.60053 8.83774,0 13.25661,-7.72341 13.25661,-15.48525 0,-7.76184 -4.41887,-15.60053 -13.25661,-15.60053 z m 0,6.22484 c 4.68784,0 6.95492,4.68784 6.95492,9.45254 0,4.72627 -2.22865,9.29884 -6.87807,9.29884 -4.57257,0 -6.83964,-4.7647 -6.83964,-9.56782 0,-4.64942 2.19022,-9.18356 6.76279,-9.18356 z"
         style=""
         id="path17021" /><path
         d="m 462.20068,-132.81842 c 0,2.11337 0.99904,3.15085 3.07399,3.15085 2.03652,0 3.074,-1.03748 3.074,-3.15085 l 0,-14.3325 10.68213,15.67738 c 0.84535,1.19117 1.95968,1.80597 3.2277,1.80597 2.03652,0 3.074,-1.11433 3.074,-3.34297 l 0,-23.43922 c 0,-2.07495 -0.99905,-3.11242 -3.11243,-3.11242 -1.99809,0 -3.03557,1.03747 -3.03557,3.11242 l 0,14.60148 -10.56686,-15.71581 c -0.9222,-1.34487 -2.03652,-2.03652 -3.38139,-2.03652 -1.9981,0 -3.03557,1.11433 -3.03557,3.34297 l 0,23.43922 z"
         style=""
         id="path17023" /></g><g
       id="g16307"
       transform="matrix(0.5,0,0,0.5,170.41308,105.26244)"><g
         id="g16309"><g
           id="g16315"><g
             id="g16317"><path
               d="M 232.654,390.597 C 132.406,388.728 51.811,318.668 51.811,232.508 l 0,0 c 0,-87.251 82.649,-157.995 184.66,-158.131 l 0,0 c 0.096,-0.002 0.195,-0.003 0.292,-0.003 l 0,0 c 6.16,0 11.153,4.269 11.153,9.536 l 0,0 c 0,5.265 -4.993,9.534 -11.153,9.534 l 0,0 c -21.047,0 -38.579,12.868 -42.422,29.903 l 0,0 c 13.506,-3.185 27.732,-4.886 42.422,-4.886 l 0,0 c 14.69,0 28.916,1.701 42.421,4.886 l 0,0 c 67.314,15.875 116.749,68.604 116.749,131.204 l 0,0 c 0,75.161 -71.262,136.091 -159.17,136.091 l 0,0 c -1.373,0 -2.742,-0.019 -4.109,-0.045 M 191.307,254.551 c 0,25.579 24.253,46.316 54.171,46.316 l 0,0 c 29.917,0 54.171,-20.737 54.171,-46.316 l 0,0 c 0,-25.579 -24.254,-46.316 -54.171,-46.316 l 0,0 c -29.918,0 -54.171,20.737 -54.171,46.316"
               style="fill:url(#linearGradient16319);stroke:none"
               id="path16327"
               inkscape:connector-curvature="0" /></g></g></g></g><g
       id="g16329"
       transform="matrix(0.5,0,0,0.5,170.41308,105.26244)"><g
         id="g16331"
         clip-path="url(#clipPath16333)"><g
           id="g16337"><g
             id="g16339" /><g
             id="g16385"
             mask="url(#mask16359)"><g
               id="g16387" /><g
               id="g16393"><g
                 clip-path="url(#clipPath16389)"
                 id="g16395"><g
                   transform="translate(181.6013,125.0014)"
                   id="g16397"><path
                     d="m 0,0 c 4.435,0 8.713,-0.575 12.737,-1.642 l 0.003,-0.012 c 3.848,-17.03 21.377,-29.89 42.419,-29.89 6.159,0 11.152,-4.27 11.152,-9.535 0,-5.266 -4.993,-9.536 -11.152,-9.536 -0.098,0 -0.196,0.001 -0.293,0.003 -34.987,0.047 -67.696,8.401 -95.575,22.877 l -0.634,0.334 -0.172,0.092 C -36.658,-11.59 -19.913,0 0,0"
                     style="fill:#000000;fill-opacity:1;fill-rule:evenodd;stroke:none"
                     id="path16399"
                     inkscape:connector-curvature="0" /></g></g></g></g></g></g></g></g></svg>